<?xml version="1.0" encoding="UTF-8"?>
<svg width="713pt" version="1.1" xmlns="http://www.w3.org/2000/svg" height="124pt" viewBox="0 0 713 124" xmlns:xlink="http://www.w3.org/1999/xlink">
 <defs>
  <clipPath id="Clip0">
   <path d="M0 0 L0 123.977 L712.281 123.977 L712.281 0 L0 0 Z" transform="translate(0, 0.0234375)"/>
  </clipPath>
 </defs>
 <g id="Background">
  <g id="Group1" clip-path="url(#Clip0)">
   <path style="fill:#008460; fill-rule:nonzero;stroke:none;" d="M51.0942 2.4737 C50.9642 2.7539 48.2602 8.0528 42.9812 18.3721 C37.6992 28.6924 32.6563 38.6397 27.8477 48.2155 L22.7852 48.2155 C17.4912 37.4678 12.4277 27.3106 7.5947 17.7471 C2.7617 8.1846 0.2295 3.17 0 2.7041 L5.9815 0 C6.1602 0.4649 8.4648 5.3096 12.8994 14.5323 C17.3311 23.7549 21.6055 32.4366 25.7188 40.5772 L25.7969 40.5772 C29.9717 32.2413 34.3047 23.4639 38.7982 14.2452 C43.2902 5.0274 45.6132 0.2784 45.7662 0 L51.0942 2.4737 " transform="translate(61.9248, 53.3525)"/>
   <path style="fill:#008460; fill-rule:nonzero;stroke:none;" d="M39.83 43.8233 L34.81 47.4108 C34.247 46.8798 32.254 44.8741 28.83 41.3955 C25.407 37.917 20.129 32.4873 13 25.1123 L13.038 24.7998 C14.009 24.5694 15.302 24.0655 16.912 23.2901 C18.524 22.5176 19.881 21.6797 20.982 20.7764 C21.927 19.9912 22.751 19.0205 23.456 17.8643 C24.158 16.708 24.511 15.1582 24.511 13.2158 C24.511 11.4366 23.993 9.9043 22.961 8.6211 C21.927 7.336 20.505 6.3946 18.693 5.794 C17.211 5.2871 15.656 4.9795 14.023 4.875 C12.39 4.7715 10.884 4.7188 9.506 4.7188 C8.588 4.7188 7.886 4.7188 7.401 4.7188 C6.915 4.7188 6.559 4.7188 6.329 4.7188 C6.277 9.127 6.244 13.0127 6.232 16.378 C6.22 19.7412 6.214 22.1182 6.214 23.5108 C6.214 26.6885 6.228 31.0049 6.257 36.4561 C6.286 41.9073 6.309 45.3291 6.329 46.7218 L0 46.7218 C0.031 45.3291 0.077 42.6319 0.138 38.6299 C0.199 34.628 0.23 29.6436 0.23 23.6787 C0.23 22.5196 0.23 20.3721 0.23 17.2403 C0.23 14.1084 0.153 8.4004 0 0.1153 C0.255 0.1153 1.533 0.0977 3.835 0.0586 C6.137 0.0205 8.259 0 10.204 0 C12.428 0 14.59 0.1172 16.686 0.3477 C18.783 0.5801 20.827 1.0782 22.823 1.8418 C25.354 2.8145 27.361 4.2442 28.845 6.1319 C30.328 8.0196 31.071 10.2373 31.071 12.7823 C31.071 16.0733 29.95 18.8116 27.714 21 C25.475 23.1885 23.359 24.8135 21.363 25.878 L21.363 26.0528 C24.905 29.7471 28.792 33.5576 33.021 37.4854 C37.25 41.4112 39.519 43.5244 39.83 43.8233 " transform="translate(209.343, 54.1572)"/>
   <path style="fill:#008460; fill-rule:nonzero;stroke:none;" d="M41.541 23.1309 C41.49 24.7988 41.437 26.752 41.387 28.9863 C41.336 31.2227 41.31 33.0703 41.31 34.5293 C41.31 36.8711 41.33 39.4844 41.369 42.3672 C41.406 45.252 41.426 46.8575 41.426 47.1815 C41.195 47.2095 40.428 47.2755 39.125 47.3755 C37.82 47.4765 36.553 47.5255 35.328 47.5255 C29.24 47.5255 23.865 46.9355 19.197 45.75 C14.529 44.5645 10.484 42.498 7.057 39.5469 C4.936 37.7363 3.227 35.4883 1.936 32.8047 C0.644 30.123 0 27.0605 0 23.623 C0 19.3975 1.232 15.6162 3.699 12.2832 C6.166 8.9482 9.562 6.2607 13.887 4.2158 C16.826 2.8232 20.168 1.7705 23.916 1.0625 C27.662 0.3545 31.568 0 35.635 0 C36.273 0 36.867 0 37.416 0 C37.967 0 38.459 0 38.894 0 L39.355 5.0635 C39.252 5.0635 38.842 5.0635 38.127 5.0635 C37.412 5.0635 36.836 5.0635 36.4 5.0635 C32.488 5.0635 28.908 5.3652 25.66 5.9697 C22.414 6.5732 19.574 7.4541 17.144 8.6143 C13.846 10.1934 11.258 12.3418 9.379 15.0566 C7.498 17.7734 6.559 20.6631 6.559 23.7266 C6.559 27.6035 7.539 30.8135 9.5 33.3555 C11.463 35.8984 13.994 37.8867 17.098 39.3262 C19.865 40.6035 22.795 41.5039 25.885 42.0254 C28.973 42.5469 32.16 42.8086 35.443 42.8086 C35.443 42.4375 35.426 40.6289 35.396 37.3828 C35.365 34.1406 35.305 29.3877 35.213 23.1309 L41.541 23.1309 " transform="translate(358.044, 53.8125)"/>
   <path style="fill:#008460; fill-rule:nonzero;stroke:none;" d="M39.832 43.8233 L34.811 47.4108 C34.248 46.8798 32.254 44.8741 28.83 41.3955 C25.409 37.917 20.131 32.4873 13 25.1123 L13.039 24.7998 C14.01 24.5694 15.303 24.0655 16.914 23.2901 C18.524 22.5176 19.883 21.6797 20.983 20.7764 C21.928 19.9912 22.752 19.0205 23.457 17.8643 C24.161 16.708 24.512 15.1582 24.512 13.2158 C24.512 11.4366 23.996 9.9043 22.963 8.6211 C21.928 7.336 20.506 6.3946 18.694 5.794 C17.211 5.2871 15.657 4.9795 14.024 4.875 C12.391 4.7715 10.885 4.7188 9.508 4.7188 C8.588 4.7188 7.887 4.7188 7.403 4.7188 C6.916 4.7188 6.561 4.7188 6.33 4.7188 C6.278 9.127 6.247 13.0127 6.233 16.378 C6.221 19.7412 6.215 22.1182 6.215 23.5108 C6.215 26.6885 6.229 31.0049 6.258 36.4561 C6.287 41.9073 6.311 45.3291 6.33 46.7218 L0 46.7218 C0.032 45.3291 0.079 42.6319 0.139 38.6299 C0.202 34.628 0.231 29.6436 0.231 23.6787 C0.231 22.5196 0.231 20.3721 0.231 17.2403 C0.231 14.1084 0.155 8.4004 0 0.1153 C0.256 0.1153 1.536 0.0977 3.836 0.0586 C6.137 0.0205 8.26 0 10.205 0 C12.43 0 14.59 0.1172 16.688 0.3477 C18.784 0.5801 20.829 1.0782 22.825 1.8418 C25.356 2.8145 27.362 4.2442 28.846 6.1319 C30.329 8.0196 31.071 10.2373 31.071 12.7823 C31.071 16.0733 29.952 18.8116 27.715 21 C25.477 23.1885 23.36 24.8135 21.364 25.878 L21.364 26.0528 C24.907 29.7471 28.793 33.5576 33.022 37.4854 C37.252 41.4112 39.52 43.5244 39.832 43.8233 " transform="translate(435.317, 54.1572)"/>
   <path style="fill:#008460; fill-rule:nonzero;stroke:none;" d="M44.189 0.3448 C44.127 3.9912 44.074 8.1573 44.027 12.8477 C43.98 17.5362 43.959 20.9151 43.959 22.9786 C43.959 29.5723 43.996 34.8145 44.074 38.7012 C44.15 42.5899 44.189 44.6621 44.189 44.918 L39.049 47.1813 C31.316 37.7071 24.09 29.1553 17.369 21.5264 C10.648 13.8985 6.764 9.4912 5.717 8.3077 L5.639 8.3409 C5.639 14.5625 5.689 22.2041 5.789 31.2657 C5.891 40.3301 5.955 45.5586 5.984 46.9513 L0 46.9513 C0.031 46.3713 0.078 44.3047 0.139 40.752 C0.199 37.1973 0.23 32.2539 0.23 25.9141 C0.23 23.3838 0.215 20.0235 0.185 15.8321 C0.152 11.6407 0.092 7.1993 0 2.5088 L5.832 0 C6.291 0.5362 10.215 5.0537 17.602 13.5586 C24.988 22.0645 31.943 29.9649 38.473 37.2618 L38.551 37.2266 C38.551 33.6524 38.492 27.6328 38.377 19.169 C38.262 10.7071 38.205 4.4327 38.205 0.3448 L44.189 0.3448 " transform="translate(638.878, 53.9277)"/>
   <path style="fill:#008460; fill-rule:nonzero;stroke:none;" d="M6.21387 24.8564 C6.21387 29.2724 6.22657 32.7763 6.25196 35.3701 C6.27637 37.9619 6.30371 40.1357 6.32911 41.8877 C7.83591 41.9267 9.66111 41.956 11.8057 41.9736 C13.9512 41.9931 16.2617 42.0029 18.7393 42.0029 C22.5439 42.0029 25.7412 41.9853 28.334 41.9463 C30.9248 41.9072 32.374 41.8877 32.6816 41.8877 L32.6816 46.6065 C32.4512 46.6065 30.748 46.5885 27.5732 46.5475 C24.3975 46.5105 20.4687 46.4915 15.7832 46.4915 C12.5322 46.4915 9.55471 46.5105 6.85351 46.5475 C4.15332 46.5885 1.86817 46.6065 0 46.6065 C0.06055 45.2548 0.11329 42.333 0.16016 37.8369 C0.20606 33.3408 0.2295 28.6963 0.2295 23.8964 C0.2295 21.2666 0.21387 17.7851 0.1836 13.4521 C0.15235 9.1201 0.0918 4.6357 0 0 C1.81934 0 4.09375 0.0195 6.82321 0.0586 C9.55271 0.0976 12.3672 0.1152 15.2656 0.1152 C20.1592 0.1152 24.1455 0.0976 27.2227 0.0586 C30.2969 0.0195 31.9639 0 32.2207 0 L32.2207 4.8339 C31.9639 4.8339 30.3564 4.8154 27.3984 4.7754 C24.4404 4.7382 20.7598 4.7187 16.3545 4.7187 C14.4346 4.7187 12.5518 4.7187 10.707 4.7187 C8.86231 4.7187 7.40431 4.7187 6.32911 4.7187 C6.32911 7.373 6.30957 10.0185 6.27149 12.6591 C6.23145 15.2978 6.21387 17.792 6.21387 20.1386 L6.21387 24.8564 " transform="translate(3.55859, 54.2725)"/>
   <path style="fill:#008460; fill-rule:nonzero;stroke:none;" d="M0 0.1152 C1.0732 0.1152 1.4209 0.1152 2.8877 0.1152 C4.3525 0.1152 5.6582 0.1152 6.8027 0.1152 C10.998 0.1152 14.7451 0.0967 18.0478 0.0576 C21.3486 0.0205 23.1074 0 23.3213 0 L23.3213 4.9482 C23.1308 4.9482 21.1631 4.9307 17.4219 4.8906 C13.6797 4.8525 10.2588 4.833 7.1601 4.833 C6.0146 4.833 4.6514 4.833 3.0654 4.833 C1.4805 4.833 1.0732 4.833 0 4.833 L0 0.1152 " transform="translate(12.3047, 74.2959)"/>
   <path style="fill:#008460; fill-rule:nonzero;stroke:none;" d="M6.214 24.8564 C6.214 29.2724 6.227 32.7763 6.252 35.3701 C6.277 37.9619 6.304 40.1357 6.329 41.8877 C7.836 41.9267 9.661 41.956 11.806 41.9736 C13.951 41.9931 16.261 42.0029 18.739 42.0029 C22.544 42.0029 25.741 41.9853 28.334 41.9463 C30.925 41.9072 32.374 41.8877 32.681 41.8877 L32.681 46.6065 C32.451 46.6065 30.748 46.5885 27.573 46.5475 C24.398 46.5105 20.469 46.4915 15.783 46.4915 C12.532 46.4915 9.555 46.5105 6.854 46.5475 C4.154 46.5885 1.868 46.6065 0 46.6065 C0.061 45.2548 0.113 42.333 0.16 37.8369 C0.207 33.3408 0.23 28.6963 0.23 23.8964 C0.23 21.2666 0.214 17.7851 0.183 13.4521 C0.153 9.1201 0.091 4.6357 0 0 C1.82 0 4.094 0.0195 6.823 0.0586 C9.553 0.0976 12.367 0.1152 15.265 0.1152 C20.16 0.1152 24.146 0.0976 27.222 0.0586 C30.297 0.0195 31.964 0 32.221 0 L32.221 4.8339 C31.964 4.8339 30.357 4.8154 27.399 4.7754 C24.441 4.7382 20.76 4.7187 16.355 4.7187 C14.435 4.7187 12.552 4.7187 10.707 4.7187 C8.863 4.7187 7.405 4.7187 6.329 4.7187 C6.329 7.373 6.309 10.0185 6.272 12.6591 C6.232 15.2978 6.214 17.792 6.214 20.1386 L6.214 24.8564 " transform="translate(142.263, 54.2725)"/>
   <path style="fill:#008460; fill-rule:nonzero;stroke:none;" d="M0 0.1152 C1.073 0.1152 1.421 0.1152 2.887 0.1152 C4.352 0.1152 5.657 0.1152 6.802 0.1152 C10.997 0.1152 14.744 0.0967 18.047 0.0576 C21.348 0.0205 23.106 0 23.321 0 L23.321 4.9482 C23.13 4.9482 21.162 4.9307 17.421 4.8906 C13.678 4.8525 10.258 4.833 7.159 4.833 C6.014 4.833 4.65 4.833 3.064 4.833 C1.479 4.833 1.073 4.833 0 4.833 L0 0.1152 " transform="translate(151.01, 74.2959)"/>
   <path style="fill:#008460; fill-rule:nonzero;stroke:none;" d="M6.213 24.8564 C6.213 29.2724 6.227 32.7763 6.252 35.3701 C6.275 37.9619 6.303 40.1357 6.328 41.8877 C7.836 41.9267 9.66 41.956 11.805 41.9736 C13.951 41.9931 16.262 42.0029 18.738 42.0029 C22.543 42.0029 25.74 41.9853 28.332 41.9463 C30.924 41.9072 32.373 41.8877 32.68 41.8877 L32.68 46.6065 C32.451 46.6065 30.748 46.5885 27.572 46.5475 C24.397 46.5105 20.469 46.4915 15.783 46.4915 C12.531 46.4915 9.555 46.5105 6.853 46.5475 C4.152 46.5885 1.867 46.6065 0 46.6065 C0.062 45.2548 0.113 42.333 0.16 37.8369 C0.205 33.3408 0.229 28.6963 0.229 23.8964 C0.229 21.2666 0.213 17.7851 0.182 13.4521 C0.152 9.1201 0.092 4.6357 0 0 C1.818 0 4.094 0.0195 6.822 0.0586 C9.553 0.0976 12.365 0.1152 15.266 0.1152 C20.158 0.1152 24.145 0.0976 27.223 0.0586 C30.297 0.0195 31.963 0 32.221 0 L32.221 4.8339 C31.963 4.8339 30.355 4.8154 27.398 4.7754 C24.439 4.7382 20.76 4.7187 16.353 4.7187 C14.434 4.7187 12.551 4.7187 10.707 4.7187 C8.861 4.7187 7.404 4.7187 6.328 4.7187 C6.328 7.373 6.309 10.0185 6.271 12.6591 C6.23 15.2978 6.213 17.792 6.213 20.1386 L6.213 24.8564 " transform="translate(504.751, 54.2725)"/>
   <path style="fill:#008460; fill-rule:nonzero;stroke:none;" d="M0 0.1152 C1.072 0.1152 1.422 0.1152 2.887 0.1152 C4.352 0.1152 5.658 0.1152 6.803 0.1152 C10.998 0.1152 14.744 0.0967 18.047 0.0576 C21.35 0.0205 23.107 0 23.322 0 L23.322 4.9482 C23.131 4.9482 21.162 4.9307 17.422 4.8906 C13.68 4.8525 10.258 4.833 7.16 4.833 C6.016 4.833 4.65 4.833 3.066 4.833 C1.482 4.833 1.072 4.833 0 4.833 L0 0.1152 " transform="translate(513.497, 74.2959)"/>
   <path style="fill:#008460; fill-rule:nonzero;stroke:none;" d="M6.215 24.8564 C6.215 29.2724 6.226 32.7763 6.252 35.3681 C6.277 37.9619 6.305 40.1357 6.33 41.8877 C7.836 41.9267 9.662 41.956 11.807 41.9736 C13.951 41.9931 16.262 42.0029 18.74 42.0029 C22.545 42.0029 25.742 41.9834 28.334 41.9443 C30.926 41.9072 32.375 41.8877 32.682 41.8877 L32.682 46.6045 C32.453 46.6045 30.75 46.5865 27.574 46.5475 C24.398 46.5105 20.471 46.4895 15.785 46.4895 C12.533 46.4895 9.557 46.5105 6.855 46.5475 C4.154 46.5865 1.869 46.6045 0 46.6045 C0.062 45.2548 0.113 42.331 0.16 37.8369 C0.207 33.3408 0.23 28.6943 0.23 23.8955 C0.23 21.2646 0.215 17.7841 0.185 13.4502 C0.154 9.1191 0.092 4.6347 0 0 C1.82 0 4.096 0.0195 6.824 0.0566 C9.555 0.0966 12.367 0.1152 15.266 0.1152 C20.16 0.1152 24.146 0.0966 27.223 0.0566 C30.299 0.0195 31.965 0 32.223 0 L32.223 4.832 C31.965 4.832 30.357 4.8144 27.4 4.7754 C24.441 4.7373 20.762 4.7177 16.355 4.7177 C14.436 4.7177 12.553 4.7177 10.709 4.7177 C8.863 4.7177 7.404 4.7177 6.33 4.7177 C6.33 7.3711 6.31 10.0185 6.273 12.6572 C6.232 15.2978 6.215 17.792 6.215 20.1377 L6.215 24.8564 " transform="translate(571.878, 54.2725)"/>
   <path style="fill:#008460; fill-rule:nonzero;stroke:none;" d="M0 0.1153 C1.072 0.1153 1.42 0.1153 2.887 0.1153 C4.353 0.1153 5.656 0.1153 6.803 0.1153 C10.998 0.1153 14.744 0.0977 18.047 0.0576 C21.35 0.0196 23.107 0 23.32 0 L23.32 4.9483 C23.131 4.9483 21.162 4.9307 17.422 4.8906 C13.68 4.8535 10.258 4.834 7.16 4.834 C6.016 4.834 4.65 4.834 3.064 4.834 C1.48 4.834 1.072 4.834 0 4.834 L0 0.1153 " transform="translate(580.626, 74.2949)"/>
   <path style="fill:#008460; fill-rule:nonzero;stroke:none;" d="M17.281 7.5 L16 7.7187 L14.884 2.0468 L14.797 2.0468 C14.563 2.5048 14.264 3.1191 13.899 3.8886 C13.535 4.6582 13.061 5.6865 12.477 6.9726 L11.589 6.9726 C11.034 5.7529 10.572 4.75 10.203 3.9648 C9.833 3.1787 9.527 2.5371 9.284 2.039 L9.196 2.039 C9.069 2.5283 8.909 3.2187 8.715 4.1084 C8.52 4.999 8.282 6.2021 8 7.7187 L6.781 7.5 C7.198 5.7607 7.585 4.1289 7.938 2.6045 C8.294 1.08 8.48 0.2636 8.5 0.1562 L9.625 0 C9.674 0.1084 9.901 0.5957 10.306 1.4619 C10.712 2.3281 11.305 3.5888 12.087 5.2431 L12.161 5.2431 C12.757 3.9316 13.296 2.7588 13.78 1.7256 C14.263 0.6933 14.535 0.1181 14.595 0 L15.687 0.0937 C15.707 0.1816 15.812 0.6894 16.005 1.6162 C16.196 2.5429 16.622 4.5048 17.281 7.5 Z M7.125 1.1875 C7.056 1.1875 6.784 1.1875 6.307 1.1875 C5.831 1.1875 5.156 1.1875 4.281 1.1875 C4.27 1.8798 4.263 2.4629 4.258 2.9355 C4.253 3.4082 4.25 3.8349 4.25 4.2158 C4.25 5.1611 4.255 5.9384 4.265 6.5478 C4.276 7.1572 4.281 7.5058 4.281 7.5937 L3 7.5937 C3 7.5058 3.005 7.1621 3.015 6.5625 C3.026 5.9629 3.031 5.166 3.031 4.1718 C3.031 3.8203 3.031 3.3886 3.031 2.8769 C3.031 2.3652 3.02 1.8017 3 1.1875 C2.137 1.1875 1.436 1.1875 0.903 1.1875 C0.368 1.1875 0.067 1.1875 0 1.1875 L0 0.0937 L7.125 0.0937 L7.125 1.1875 Z" transform="translate(691.301, 53.4473)"/>
   <path style="fill:#008460; fill-rule:evenodd;stroke:none;" d="M4.356 0.02246 C5.984 0 6.506 0.6748 7.033 1.72559 C7.152 1.96582 7.526 2.49902 7.411 2.88769 C7.23 3.18555 7.05 3.48242 6.87 3.78027 C6.476 4.53418 6.159 5.36328 5.842 6.18555 C4.748 9.02926 4.289 13.7745 5.005 17.4307 C5.895 21.9766 7.191 26.2286 9.195 29.6748 C9.837 30.7813 10.502 31.9053 11.114 33 C11.998 34.5821 12.644 36.2325 13.547 37.7842 C14.501 39.5235 15.456 41.2627 16.412 43.001 C16.615 43.3526 17.304 44.5303 17.087 45.1104 C17.042 45.1641 16.997 45.2178 16.952 45.2725 C16.007 45.2793 15.425 44.5625 14.871 44.1368 C13.325 42.9473 12.024 41.5821 10.816 40.0547 C9.572 38.4815 8.049 37.0205 6.978 35.2979 C4.423 31.1875 2.351 26.5411 1.004 21.2686 C0.648 19.8741 0.484 18.4151 0.221 16.917 C0.05 15.9532 0.043 14.9981 0.058 13.9434 C0.068 13.2246 0 12.2227 0.112 11.5381 C0.27 10.5674 0.202 9.68166 0.382 8.78026 C0.786 6.76656 1.262 4.93066 1.977 3.2666 C2.244 2.64746 3.093 0.55273 3.518 0.2666 C3.797 0.18457 4.077 0.10351 4.356 0.02246 " transform="translate(277.127, 3.35254)"/>
   <path style="fill:#008460; fill-rule:evenodd;stroke:none;" d="M7.488 0.03418 C9.022 0 9.573 0.9541 9.894 2.14258 C9.954 2.36914 10.11 2.81347 10.001 3.08891 C9.741 3.53031 9.479 3.97171 9.218 4.41311 C8.758 5.38571 8.299 6.35941 7.839 7.33201 C6.596 10.251 5.846 13.4131 5.137 16.9277 C4.902 18.0889 4.959 19.2549 4.758 20.4961 C4.606 21.4336 4.65 22.5058 4.65 23.5508 C4.659 24.0996 4.668 24.6494 4.677 25.1992 C4.713 25.9023 4.749 26.6045 4.785 27.3076 C5.251 30.0664 5.463 32.6562 6.19 35.0918 C7.75 40.3135 9.647 44.9766 11.705 49.6894 C12.646 51.8447 13.743 53.8818 14.786 55.9336 C15.101 56.5517 15.9 57.8496 15.732 58.7441 C15.687 58.7891 15.642 58.834 15.597 58.8799 C14.715 58.8359 13.732 57.6367 13.218 57.123 C11.282 55.1846 9.608 53.0146 8.109 50.6348 C6.867 48.6621 5.458 46.6299 4.488 44.418 C3.003 41.0332 1.978 37.3848 1.001 33.4433 C0.695 32.209 0.62 30.9736 0.379 29.6592 C0.262 28.5508 0.145 27.4424 0.028 26.3349 C0.018 25.9385 0.01 25.542 0 25.1455 C0 24.2441 0 23.3437 0 22.4424 C0.028 21.7666 0.055 21.0908 0.082 20.415 C0.172 19.3965 0.262 18.3789 0.352 17.3603 C0.869 14.5869 1.316 11.9746 2.082 9.54881 C2.843 7.13871 3.721 4.92971 4.785 2.84471 C5.055 2.3164 5.679 0.84863 6.056 0.52051 C6.431 0.19433 6.971 0.23828 7.488 0.03418 " transform="translate(293.484, 7.17969)"/>
   <path style="fill:#008460; fill-rule:evenodd;stroke:none;" d="M15.922 0.0341 C17.64 0 18.382 0.7216 18.382 2.3857 C18.382 2.8379 18.382 3.373 18.193 3.6562 C17.94 3.917 17.688 4.1787 17.436 4.4404 C16.958 5.0078 16.481 5.5752 16.003 6.1435 C14.679 7.8418 13.404 9.6113 12.245 11.4687 C9.343 16.1172 7.271 21.3154 5.758 27.3886 C5.349 29.0332 5.25 30.7841 4.947 32.5517 C4.893 33.2275 4.84 33.9033 4.785 34.5791 C4.767 35.2734 4.749 35.9668 4.731 36.6611 C4.731 37.2099 4.731 37.7597 4.731 38.3095 C4.74 38.8134 4.749 39.3183 4.758 39.8232 C4.866 40.9404 4.975 42.0576 5.082 43.1748 C5.209 44.0937 5.335 45.0127 5.461 45.9316 C6.412 50.2851 7.151 54.6142 8.407 58.6103 C9.051 60.6582 9.82 62.5166 10.516 64.5029 C10.78 65.2578 11.325 66.3418 11.083 67.3408 C11.056 67.3486 11.029 67.3584 11.002 67.3672 C10.569 67.5205 10.155 66.8779 9.948 66.665 C9.03 65.7197 8.287 64.5615 7.57 63.4209 C4.595 58.6972 2.325 53.3838 0.947 47.04 C0.559 45.2558 0.505 43.3017 0.19 41.3642 C0 40.1963 0.244 38.9443 0.055 37.7148 C0.073 36.8408 0.091 35.9668 0.109 35.0927 C0.127 34.6338 0.145 34.1728 0.163 33.7138 C0.356 32.5166 0.352 31.25 0.568 30.1191 C0.971 28.0205 1.164 26.0459 1.731 24.1455 C2.225 22.4853 2.636 20.7881 3.244 19.2256 C4.752 15.3535 6.536 11.8603 8.596 8.5752 C9.892 6.5097 11.309 4.624 12.759 2.7373 C13.315 2.0136 14.091 0.8808 14.814 0.3584 C15.108 0.1455 15.559 0.1875 15.922 0.0341 " transform="translate(307.702, 10.9639)"/>
   <path style="fill:#008460; fill-rule:evenodd;stroke:none;" d="M1.739 0.1367 C12.506 0 20.154 3.9199 26.715 8.0576 C29.698 9.9375 32.843 12.0293 35.014 14.7343 C35.662 15.4726 36.311 16.2119 36.96 16.9502 C38 18.2861 38.945 19.6552 39.879 21.1132 C40.138 21.5166 41.252 23.0966 40.987 23.7617 C40.942 23.8066 40.897 23.8515 40.852 23.8964 C40.108 24.1064 38.683 22.8769 38.23 22.5459 C35.996 20.789 33.761 19.0312 31.527 17.2744 C25.704 12.9814 20.267 8.8222 12.524 6.3808 C10.323 5.6865 8.045 5.3535 5.496 4.9218 C4.595 4.7685 3.628 4.8134 2.631 4.8134 C2.297 4.8134 1.964 4.8134 1.631 4.8134 C1.39 4.7002 1.221 4.4209 1.063 4.2187 C0.27 3.1982 0 2.0771 0.82 0.8398 C0.962 0.625 1.087 0.3515 1.307 0.2187 C1.451 0.1914 1.595 0.164 1.739 0.1367 " transform="translate(240.874, 16.6182)"/>
   <path style="fill:#008460; fill-rule:evenodd;stroke:none;" d="M15.164 0.0332 C17.094 0 17.635 0.7334 17.894 2.3848 C17.947 2.7227 17.936 3.3662 17.786 3.6279 C17.129 4.2861 16.471 4.9443 15.813 5.6016 C14.652 7.04 13.432 8.4219 12.353 9.9531 C9.382 14.1719 7.185 19.123 5.731 24.8477 C5.291 26.5771 5.183 28.4199 4.865 30.3076 C4.811 31.3076 4.757 32.3076 4.704 33.3076 C4.694 34.0019 4.685 34.6963 4.676 35.3896 C4.74 37.4111 4.758 39.3057 5.055 41.0654 C5.109 41.8584 5.163 42.6514 5.217 43.4443 C5.607 45.7803 5.643 48.1484 6.109 50.3916 C6.461 52.0947 6.812 53.7978 7.163 55.5 C7.296 56.1348 7.445 57.2978 7.136 57.8252 C7.118 57.835 7.1 57.8428 7.082 57.8525 C6.486 57.8076 6.218 57.1846 5.947 56.7978 C5.223 55.7666 4.705 54.6025 4.082 53.4463 C2.3 50.1396 1.249 45.542 0.378 41.3643 C0.316 40.7236 0.253 40.084 0.19 39.4443 C0.034 38.4775 0.191 37.415 0.027 36.3623 C0.018 35.4795 0.009 34.5967 0 33.7139 C0.045 32.7852 0.09 31.8574 0.135 30.9297 C0.497 28.7012 0.523 26.5264 1.027 24.4961 C1.795 21.4053 2.609 18.5215 3.757 15.8193 C5.234 12.3418 7.156 9.2715 9.218 6.3857 C10.071 5.1904 10.988 4.0879 11.893 2.9531 C12.29 2.5293 12.687 2.1055 13.083 1.6826 C13.587 1.1777 14.092 0.6728 14.597 0.1689 C14.786 0.123 14.975 0.0781 15.164 0.0332 " transform="translate(319.623, 31.0752)"/>
   <path style="fill:#008460; fill-rule:evenodd;stroke:none;" d="M29.354 0 C30.515 0.0147 31.553 0.5157 31.895 1.3516 C32.287 2.3038 31.589 4.0215 31.058 4.3789 C30.138 4.794 29.22 5.209 28.301 5.6231 C26.428 6.5801 24.575 7.6329 22.895 8.8125 C15.796 13.7979 10.443 20.0391 7.055 28.7618 C4.841 34.461 4.136 41.9707 4.135 49.7637 C4.135 52.4043 4.178 54.8106 4.541 57.17 C4.682 58.0889 4.675 59.7344 4.217 60.1973 C3.695 60.1329 3.48 59.4512 3.298 59.0352 C2.832 57.9786 2.454 56.8623 2.054 55.6836 C1.136 52.9786 0.822 49.8868 0.27 46.6827 C0.198 45.5293 0.126 44.375 0.054 43.2227 C0.036 42.5645 0.018 41.9073 0 41.25 C0 39.4092 0.088 37.7618 0.406 36.168 C0.923 33.5645 1.373 31.0889 2.108 28.7618 C5.324 18.5821 11.753 10.9366 19.624 5.3799 C21.471 4.0752 23.465 2.9766 25.462 1.8116 C26.391 1.3614 27.319 0.9102 28.246 0.46 C28.616 0.3067 28.985 0.1534 29.354 0 " transform="translate(330.76, 37.2441)"/>
   <path style="fill:#008460; fill-rule:evenodd;stroke:none;" d="M9.579 0.0947 C18.486 0 24.447 2.0527 30.474 4.7168 C34.615 6.5478 38.14 8.9502 41.124 11.9336 C42.842 13.6513 44.446 15.414 45.827 17.4756 C46.07 17.8369 47.142 19.1767 46.909 19.7724 C46.863 19.8183 46.818 19.8633 46.773 19.9082 C46.194 20.0703 45.488 19.5068 45.125 19.2861 C43.781 18.4687 42.563 17.5586 41.313 16.664 C39.112 15.0898 36.815 13.7353 34.448 12.2861 C31.88 10.7129 29.245 9.1806 26.311 7.9336 C19.771 5.1533 10.716 3.7334 2.281 5.7715 C1.957 5.8496 1.618 5.4619 1.443 5.3388 C0.821 4.8965 0 4.1806 0.227 2.9326 C0.329 2.3672 0.579 1.5332 0.984 1.2568 C1.304 1.039 1.831 1.0312 2.254 0.9326 C3.883 0.5517 5.694 0.498 7.498 0.2031 C8.192 0.167 8.886 0.1308 9.579 0.0947 " transform="translate(251.82, 38.7178)"/>
   <path style="fill:#008460; fill-rule:evenodd;stroke:none;" d="M22.926 0.0644 C30.669 0 37.425 0.9219 43.01 3.0918 C44.905 3.8281 46.874 4.3545 48.551 5.3359 C51.041 6.792 53.296 8.4717 55.498 10.2012 C57.362 11.665 59.082 13.4287 60.525 15.3096 C60.904 15.8047 61.95 16.8516 61.796 17.6894 C61.769 17.6973 61.742 17.707 61.715 17.7158 C61.204 17.9336 59.929 17 59.606 16.7969 C57.643 15.5537 55.678 14.3105 53.713 13.0664 C48.652 9.9082 42.478 7.5781 35.928 5.9297 C33.693 5.3682 31.339 5.2568 28.873 4.8486 C27.623 4.6426 26.236 4.7402 24.872 4.7402 C23.713 4.7402 22.469 4.6504 21.412 4.8223 C19.842 5.0771 18.346 4.9521 16.871 5.2275 C13.068 5.9385 9.492 6.5527 6.141 7.6064 C5.312 7.8672 4.482 8.1289 3.653 8.3896 C3.329 8.5254 3.004 8.6601 2.68 8.7949 C2.473 8.7422 2.266 8.6875 2.059 8.6338 C1.149 8.3193 0.361 7.9238 0.166 6.9033 C0 6.0303 0.657 4.6299 1.085 4.3623 C1.392 4.2539 1.698 4.1465 2.004 4.0381 C2.955 3.6689 3.953 3.3848 4.978 3.0644 C8.652 1.916 12.411 1.3144 16.574 0.5508 C18.007 0.416 19.439 0.2803 20.872 0.1455 C21.557 0.1182 22.241 0.0918 22.926 0.0644 " transform="translate(249.772, 55.5879)"/>
   <path style="fill:#008460; fill-rule:evenodd;stroke:none;" d="M21.928 0.0703 C28.247 0 33.336 0.9844 37.958 2.6113 C39.902 3.2969 41.595 3.9434 43.634 4.8555 C45.951 5.8926 47.909 7.5234 49.905 8.9902 C51.698 10.3066 53.294 11.793 54.825 13.3691 C55.13 13.6836 56.23 14.7305 55.879 15.2617 C54.689 15.3994 53.522 14.6055 52.689 14.1807 C50.563 13.1084 48.436 12.0361 46.31 10.9639 C41.595 8.5264 37.491 7.1436 32.444 5.8545 C30.538 5.3691 28.543 5.207 26.443 4.8555 C25.281 4.6602 22.972 4.5781 21.766 4.7734 C21.28 4.791 20.793 4.8096 20.307 4.8281 C19.004 5.041 17.718 5.0703 16.495 5.3418 C13.237 6.0615 10.48 7.0469 7.791 8.2344 C6.845 8.7656 5.899 9.2969 4.953 9.8281 C4.611 10.0713 4.268 10.3154 3.926 10.5586 C3.718 10.541 3.511 10.5215 3.304 10.5039 C2.241 10.293 1.453 10.04 1.088 9.1523 C0 6.5117 3.082 5.5273 4.467 4.7197 C7.647 2.8652 11.362 1.6875 15.495 0.7734 C16.892 0.4648 18.358 0.4238 19.847 0.1787 C20.54 0.1426 21.234 0.1074 21.928 0.0703 " transform="translate(264.366, 67.9082)"/>
   <path style="fill:#008460; fill-rule:evenodd;stroke:none;" d="M32.914 0.1269 C42.921 0 50.323 2.8906 56.431 6.7207 C57.873 7.6269 59.192 8.6269 60.512 9.6406 C61.1 10.0918 61.851 10.5703 62.107 11.3437 C62.053 11.3984 61.999 11.4521 61.945 11.5059 C61.24 11.7158 59.98 11.1777 59.458 10.9922 C57.521 10.2715 55.583 9.5508 53.646 8.8301 C50.018 7.4121 45.903 6.5527 41.78 5.6406 C40.735 5.4873 39.689 5.334 38.645 5.1816 C37.569 4.9883 36.351 5.043 35.212 4.8574 C34.662 4.8477 34.113 4.8379 33.562 4.8291 C32.797 4.8291 32.032 4.8291 31.265 4.8291 C30.463 4.8838 29.661 4.9375 28.86 4.9922 C27.053 5.2969 25.292 5.4062 23.669 5.8838 C22.145 6.332 20.584 6.7051 19.157 7.2617 C16.049 8.4756 13.227 9.8975 10.586 11.5605 C8.992 12.5644 7.576 13.7949 6.127 14.9385 C5.505 15.4883 4.883 16.0391 4.262 16.5879 C4.036 16.8223 3.811 17.0566 3.586 17.291 C3.306 17.3262 3.028 17.3623 2.748 17.3984 C1.561 17.5918 0.663 17.0644 0.343 16.291 C0.122 15.7578 0 14.6152 0.261 14.0195 C0.445 13.6006 1.374 12.8613 1.748 12.5605 C3.056 11.5068 4.258 10.3535 5.64 9.3437 C10.684 5.6562 16.28 2.9512 23.318 1.1797 C25.312 0.6787 27.439 0.623 29.643 0.2617 C30.734 0.2168 31.824 0.1709 32.914 0.1269 " transform="translate(268.031, 81.7461)"/>
   <path style="fill:#008460; fill-rule:evenodd;stroke:none;" d="M41.582 0.1152 C48.924 0 54.615 1.8555 59.746 4.0615 C61.051 4.623 62.302 5.1904 63.422 5.9258 C63.719 6.1211 64.511 6.5039 64.287 7.0077 C63.18 7.3007 61.767 6.8975 60.8 6.6836 C58.458 6.2598 56.114 5.8359 53.772 5.4121 C52.295 5.2422 50.817 5.0703 49.339 4.8984 C48.654 4.8721 47.97 4.8457 47.285 4.8184 C46.527 4.6973 45.475 4.7578 44.697 4.6973 C43.509 4.6025 41.851 4.6133 40.581 4.8184 C39.797 4.8809 39.013 4.9434 38.229 5.0078 C36.123 5.3711 34.082 5.5273 32.202 6.0889 C29.688 6.8389 27.356 7.6437 25.12 8.6287 C18.163 11.6957 12.229 17.0357 7.901 22.7657 C6.998 23.9627 6.037 25.1547 5.225 26.4427 C4.987 26.8197 4.495 27.9377 4.171 28.1457 C3.275 28.7187 1.545 29.0257 0.846 28.0647 C0.574 27.6897 0 26.2407 0.306 25.5237 C0.593 25.0647 0.882 24.6037 1.171 24.1447 C2.787 21.5817 4.681 19.3907 6.523 17.0897 C7.744 15.5647 9.191 14.0177 10.713 12.7927 C11.19 12.3497 11.668 11.9097 12.146 11.4667 C13.321 10.5317 14.476 9.5567 15.713 8.6837 C19.904 5.7246 24.629 3.5 30.12 1.8174 C32.522 1.082 35.081 0.832 37.824 0.3584 C39.076 0.2773 40.329 0.1953 41.582 0.1152 " transform="translate(272.014, 93.0293)"/>
  </g>
 </g>
</svg>