<?xml version="1.0" encoding="UTF-8" standalone="no"?>
<svg xmlns="http://www.w3.org/2000/svg" height="134.2" width="299.5" version="1.1" viewBox="0 0 299.52404 134.24283">
  <style>
    svg {
        fill: #587635;
    }
    .dag-node {
        stroke: #587635;
        stroke-width: 1.79;
        fill: none;
    }
  </style>
  <g id="name">
    <path d="m56.7 133.1v-48.69l10.68-1.116v49.83h-10.68zm33.71 0h-12.02l-10.68-19 10.95-15.84h10.88l-10.88 15.29 11.76 19.56z"/>
    <path d="m119.2 123c0 2.692 0.7443 3.676 2.432 4.267l-2.229 6.762c-4.256-0.3282-7.027-1.576-8.648-5.055-2.567 3.872-6.553 5.252-10.81 5.252-7.162 0-11.69-4.53-11.69-10.9 0-7.614 5.946-11.75 16.82-11.75h3.647v-1.51c0-4.136-1.689-5.383-6.08-5.383-2.297 0-5.811 0.6565-9.392 1.837l-2.432-6.828c4.526-1.641 9.458-2.56 13.51-2.56 10.41 0 14.86 4.269 14.86 12.34v13.52zm-10.47 0.4595v-6.171h-2.634c-4.865 0-7.229 1.641-7.229 5.121 0 2.757 1.554 4.397 4.189 4.397 2.498 0.001 4.39-1.246 5.674-3.347z"/>
    <path d="m135.1 123.3c0 1.969 0.6759 2.693 1.825 2.693 0.5402 0 1.282-0.1327 1.756-0.3282l2.095 7.353c-1.824 0.7221-4.392 1.182-6.891 1.182-5.945 0-9.458-3.412-9.458-9.847v-39.98l10.67-1.116v40.04z"/>
    <path d="m152.2 123.3c0 1.969 0.6759 2.693 1.825 2.693 0.5402 0 1.282-0.1327 1.756-0.3282l2.095 7.353c-1.824 0.7221-4.392 1.182-6.891 1.182-5.945 0-9.458-3.412-9.458-9.847v-39.98l10.67-1.116v40.04z"/>
    <path d="m170.6 85.8c0 3.347-2.633 5.907-6.35 5.907s-6.282-2.56-6.282-5.907c0-3.348 2.567-5.907 6.282-5.907 3.716 0 6.35 2.558 6.35 5.907zm-11.7 47.3v-34.83h10.67v34.86h-10.67z"/>
    <path d="m197.5 131.5c-2.701 1.837-6.485 2.757-9.728 2.757-7.904-0.0657-11.75-4.397-11.75-12.6v-16.15h-5.067v-7.221h5.067v-7.543l10.67-1.182v8.731h8.242l-1.15 7.22h-7.092v16.02c0 3.347 1.148 4.53 3.376 4.53 1.218 0 2.435-0.3282 3.851-1.183l3.581 6.631z"/>
    <path d="m229.1 107.6v25.47h-10.67v-23.7c0-3.676-1.349-4.661-3.376-4.661-2.366 0-4.324 1.641-6.215 4.464v23.9h-10.7v-48.7l10.67-1.05v18.64c2.905-3.217 6.148-4.859 10.34-4.859 6.212 0.0028 9.929 3.876 9.929 10.51z"/>
    <path d="m265.2 118.7h-22.23c0.7432 6.237 3.782 7.944 8.175 7.944 2.905 0 5.471-0.9848 8.579-3.086l4.39 5.777c-3.58 2.757-8.175 4.858-13.98 4.858-11.96 0-18.04-7.483-18.04-18.38 0-10.44 5.878-18.71 16.75-18.71 10.27 0 16.55 6.565 16.55 17.86 0.001 1.117-0.0672 2.693-0.2006 3.742zm-10.27-6.695c-0.0684-4.727-1.556-8.008-5.811-8.008-3.514 0-5.676 2.232-6.148 8.467h11.96v-0.4596z"/>
    <path d="m297.1 123c0 2.692 0.7455 3.676 2.432 4.267l-2.228 6.762c-4.257-0.3282-7.027-1.576-8.648-5.055-2.568 3.872-6.553 5.252-10.81 5.252-7.162 0-11.69-4.53-11.69-10.9 0-7.614 5.946-11.75 16.82-11.75h3.647v-1.51c0-4.136-1.689-5.383-6.08-5.383-2.298 0-5.811 0.6565-9.393 1.837l-2.432-6.828c4.526-1.641 9.458-2.56 13.51-2.56 10.41 0 14.86 4.269 14.86 12.34v13.52zm-10.47 0.4595v-6.171h-2.635c-4.863 0-7.227 1.641-7.227 5.121 0 2.757 1.554 4.397 4.189 4.397 2.497 0.001 4.389-1.246 5.674-3.347z"/>
  </g>
  <g id="dag">
    <path d="m32.875 15.21875l0.25 19.65625s0.178743 1.506397 0 2.125c-0.178743 0.618802-0.875 1.375-0.875 1.375l-9.125 9.375s-1.883097 2.054062-2.1875 2.71875c-0.304403 0.664788-0.15625 3.9375-0.15625 3.9375v14.5l-8.40625-7.84375s-0.34383-0.325995-0.59375-0.9375c-0.24992-0.611605-0.15625-1.6875-0.15625-1.6875l-0.28125-25.125h-3.34375l0.28125 26s-0.0818041 1.318737 0.28125 2.0625c0.3630841 0.744262 1.1875 1.75 1.1875 1.75l10.1875 9.84375s0.322179 0.376421 0.84375 1.40625l-0.03125 25.34375s0.269276 2.61052-2 2.84375h-7.75v21.8125h6.25v-15.5625h18.59375v-6.25h-8.53125c-1.629934-0.26846-2.247497-1.29702-2.375-2.84375l0.03125-5.03125c0.7959-1.662087 2.40625-3.21875 2.40625-3.21875l16.1875-16.75s0.599428-0.510496 0.84375-1.4375c0.254119-0.962093 0.28125-1.75 0.28125-1.75l-0.03125-7.5h-3.625v7.78125s-0.006008 0.338031-0.1875 0.75-0.25 0.5-0.25 0.5l-15.59375 16.0625 0.21875-34.78125s-0.147233-1.912167 0.375-2.75c0.521933-0.837933 1.28125-1.34375 1.28125-1.34375l8.71875-8.96875s1.492702-1.345649 1.8125-2.28125c0.319798-0.935701 0.15625-4.1875 0.15625-4.1875l-0.34375-19.59375h-4.34375z"/>
    <circle class="dag-node" d="m 142.564,81.525002 c 0,2.840952 -2.30305,5.144 -5.144,5.144 -2.84095,0 -5.144,-2.303048 -5.144,-5.144 0,-2.840953 2.30305,-5.144001 5.144,-5.144001 2.84095,0 5.144,2.303048 5.144,5.144001 z" transform="matrix(1.397 0 0 1.397 -156.9 -105.7)" cy="81.53" cx="137.4" r="5.144"/>
    <circle class="dag-node" d="m 146.50301,118.13 c 0,1.95674 -1.58626,3.543 -3.543,3.543 -1.95675,0 -3.543,-1.58626 -3.543,-3.543 0,-1.95675 1.58625,-3.543 3.543,-3.543 1.95674,0 3.543,1.58625 3.543,3.543 z" transform="matrix(1.397 0 0 1.397 -156.9 -105.7)" cy="118.1" cx="143" r="3.543"/>
    <circle class="dag-node" transform="matrix(1.397 0 0 1.397 -156.6 -105.7)" cy="93.94" cx="119" r="5.777"/>
  </g>
  <g id="codeBox">
    <path id="top" d="m10.97 102.6v21.81h6.25v-15.56h18.59v-6.25z"/>
    <path id="bottom" d="m29.66 111.3v15.59h-18.69v6.25h24.94v-21.84z"/>
  </g>
</svg>
