<?xml version="1.0" encoding="UTF-8" standalone="no"?>
<!-- Generator: Adobe Illustrator 9.0.1, SVG Export Plug-In  -->

<svg
   xmlns:dc="http://purl.org/dc/elements/1.1/"
   xmlns:cc="http://creativecommons.org/ns#"
   xmlns:rdf="http://www.w3.org/1999/02/22-rdf-syntax-ns#"
   xmlns:svg="http://www.w3.org/2000/svg"
   xmlns="http://www.w3.org/2000/svg"
   xmlns:sodipodi="http://sodipodi.sourceforge.net/DTD/sodipodi-0.dtd"
   xmlns:inkscape="http://www.inkscape.org/namespaces/inkscape"
   width="108.21875"
   height="87.6875"
   viewBox="0 0 86.575002 70.150002"
   xml:space="preserve"
   id="svg2277"
   sodipodi:version="0.32"
   inkscape:version="0.48.5 r10040"
   sodipodi:docname="Twisted-trimmed.svg"
   inkscape:output_extension="org.inkscape.output.svg.inkscape"
   version="1.1"><metadata
     id="metadata2323"><rdf:RDF><cc:Work
         rdf:about=""><dc:format>image/svg+xml</dc:format><dc:type
           rdf:resource="http://purl.org/dc/dcmitype/StillImage" /><dc:title></dc:title></cc:Work></rdf:RDF></metadata><defs
     id="defs2321" /><sodipodi:namedview
     inkscape:window-height="733"
     inkscape:window-width="1278"
     inkscape:pageshadow="2"
     inkscape:pageopacity="0.0"
     guidetolerance="10.0"
     gridtolerance="10.0"
     objecttolerance="10.0"
     borderopacity="1.0"
     bordercolor="#666666"
     pagecolor="#ffffff"
     id="base"
     inkscape:zoom="4.193761"
     inkscape:cx="54.958751"
     inkscape:cy="-2.3271663"
     inkscape:window-x="0"
     inkscape:window-y="27"
     inkscape:current-layer="svg2277"
     showgrid="false"
     inkscape:window-maximized="0"
     fit-margin-top="0"
     fit-margin-left="0"
     fit-margin-right="0"
     fit-margin-bottom="0" /><path
     style="fill:#000000;fill-opacity:1;fill-rule:nonzero;stroke:none"
     d="M 43.349999,0 -5.9309479e-7,32 29.399999,53.675 l 2.7,1.95 -0.05,0.025 2.925,2.15 34.725,-25.7 -26.975,-19.9 -26.55,19.675 18.8,13.85 18.9,-14.075 -10.85,-8 0,-2.225 0.05,-0.075 12.9,9.55 1,0.75 -1,0.75 -20.4,15.225 -0.55,0.4 -0.575,-0.4 -20.4,-15 -1.025,-0.75 1,-0.75 28.125,-20.85 0.55,-0.4 0.575,0.4 28.525,21.075 1.025,0.75 -1,0.75 -36.25,26.875 -0.55,0.4 -0.575,-0.4 -4,-2.95 -2.9,2 -4.025,3.05 11.025,8.325 52.025,-38.55 -43.225,-31.6 z"
     id="path2280"
     inkscape:connector-curvature="0" /><path
     id="path2302"
     d="m 33.193999,35.4 0.094,-1.969 -4.313,-2.062 0,0.938 4.219,3.094 0,-0.001 z"
     style="fill:#ffffff;fill-rule:nonzero;stroke:none"
     inkscape:connector-curvature="0" /><path
     id="path2300"
     d="m 37.083999,35.4 -0.094,-1.969 4.312,-2.062 0,0.938 -4.218,3.093 z"
     style="fill:#ffffff;fill-rule:nonzero;stroke:none"
     inkscape:connector-curvature="0" /></svg>